<svg width="1960" height="1845" viewBox="0 0 1960 1845" fill="none" xmlns="http://www.w3.org/2000/svg">
<path d="M70 2H430C467.555 2 498 32.4446 498 70V230C498 267.555 467.555 298 430 298H70C32.4446 298 2 267.555 2 230V70L2.00586 69.1211C2.47644 31.9708 32.738 2 70 2Z" fill="#028D3A"/>
<path d="M70 2H430C467.555 2 498 32.4446 498 70V230C498 267.555 467.555 298 430 298H70C32.4446 298 2 267.555 2 230V70L2.00586 69.1211C2.47644 31.9708 32.738 2 70 2Z" stroke="white" stroke-width="4"/>
<path d="M133.734 94L128.23 79.856H110.118L104.678 94H98.8537L116.71 48.112H121.894L139.686 94H133.734ZM121.382 60.912C121.254 60.5707 121.04 59.952 120.742 59.056C120.443 58.16 120.144 57.2427 119.846 56.304C119.59 55.3227 119.376 54.576 119.206 54.064C118.992 54.9173 118.758 55.792 118.502 56.688C118.288 57.5413 118.054 58.3307 117.798 59.056C117.584 59.7813 117.392 60.4 117.222 60.912L112.038 74.736H126.502L121.382 60.912ZM143.826 94V59.696H149.458V73.968H166.61V59.696H172.242V94H166.61V78.704H149.458V94H143.826ZM190.179 94.64C187.832 94.64 185.848 94.256 184.227 93.488C182.605 92.72 181.368 91.5893 180.515 90.096C179.704 88.6027 179.299 86.8107 179.299 84.72C179.299 81.1787 180.643 78.448 183.331 76.528C186.019 74.608 190.072 73.5627 195.491 73.392L201.315 73.2V71.216C201.315 68.6133 200.696 66.7147 199.459 65.52C198.264 64.3253 196.344 63.728 193.699 63.728C192.12 63.728 190.499 63.9413 188.835 64.368C187.171 64.752 185.421 65.3493 183.587 66.16L181.731 61.744C183.864 60.8053 185.891 60.1227 187.811 59.696C189.773 59.2693 191.757 59.056 193.763 59.056C198.115 59.056 201.379 60.016 203.555 61.936C205.731 63.856 206.819 66.736 206.819 70.576V94H202.723L201.635 89.072H201.379C200.355 90.352 199.288 91.4187 198.179 92.272C197.069 93.0827 195.853 93.68 194.531 94.064C193.251 94.448 191.8 94.64 190.179 94.64ZM191.587 90.096C194.317 90.096 196.6 89.3067 198.435 87.728C200.312 86.1067 201.251 83.6107 201.251 80.24V77.36L196.195 77.552C192.355 77.7227 189.539 78.3627 187.747 79.472C185.997 80.5813 185.123 82.2453 185.123 84.464C185.123 86.2987 185.677 87.7067 186.787 88.688C187.896 89.6267 189.496 90.096 191.587 90.096ZM230.093 94.64C224.973 94.64 220.963 93.1467 218.061 90.16C215.203 87.1733 213.773 82.8427 213.773 77.168C213.773 73.3707 214.435 70.128 215.757 67.44C217.08 64.752 218.957 62.6827 221.389 61.232C223.864 59.7813 226.829 59.056 230.285 59.056C231.949 59.056 233.613 59.2267 235.277 59.568C236.941 59.9093 238.392 60.4213 239.629 61.104L237.901 65.52C236.579 64.9227 235.341 64.496 234.189 64.24C233.037 63.9413 231.736 63.792 230.285 63.792C226.829 63.792 224.184 64.944 222.349 67.248C220.515 69.5093 219.597 72.7947 219.597 77.104C219.597 81.3707 220.515 84.5707 222.349 86.704C224.184 88.8373 226.957 89.904 230.669 89.904C231.949 89.904 233.293 89.776 234.701 89.52C236.109 89.264 237.475 88.88 238.797 88.368V93.104C237.731 93.5733 236.429 93.936 234.893 94.192C233.357 94.4907 231.757 94.64 230.093 94.64ZM253.016 94V64.432H241.944V59.696H269.784V64.432H258.584V94H253.016ZM283.214 94.64C280.867 94.64 278.883 94.256 277.262 93.488C275.64 92.72 274.403 91.5893 273.55 90.096C272.739 88.6027 272.334 86.8107 272.334 84.72C272.334 81.1787 273.678 78.448 276.366 76.528C279.054 74.608 283.107 73.5627 288.526 73.392L294.35 73.2V71.216C294.35 68.6133 293.731 66.7147 292.494 65.52C291.299 64.3253 289.379 63.728 286.734 63.728C285.155 63.728 283.534 63.9413 281.87 64.368C280.206 64.752 278.456 65.3493 276.622 66.16L274.766 61.744C276.899 60.8053 278.926 60.1227 280.846 59.696C282.808 59.2693 284.792 59.056 286.798 59.056C291.15 59.056 294.414 60.016 296.59 61.936C298.766 63.856 299.854 66.736 299.854 70.576V94H295.758L294.67 89.072H294.414C293.39 90.352 292.323 91.4187 291.214 92.272C290.104 93.0827 288.888 93.68 287.566 94.064C286.286 94.448 284.835 94.64 283.214 94.64ZM284.622 90.096C287.352 90.096 289.635 89.3067 291.47 87.728C293.347 86.1067 294.286 83.6107 294.286 80.24V77.36L289.23 77.552C285.39 77.7227 282.574 78.3627 280.782 79.472C279.032 80.5813 278.158 82.2453 278.158 84.464C278.158 86.2987 278.712 87.7067 279.822 88.688C280.931 89.6267 282.531 90.096 284.622 90.096ZM323.128 94.64C318.008 94.64 313.998 93.1467 311.096 90.16C308.238 87.1733 306.808 82.8427 306.808 77.168C306.808 73.3707 307.47 70.128 308.792 67.44C310.115 64.752 311.992 62.6827 314.424 61.232C316.899 59.7813 319.864 59.056 323.32 59.056C324.984 59.056 326.648 59.2267 328.312 59.568C329.976 59.9093 331.427 60.4213 332.664 61.104L330.936 65.52C329.614 64.9227 328.376 64.496 327.224 64.24C326.072 63.9413 324.771 63.792 323.32 63.792C319.864 63.792 317.219 64.944 315.384 67.248C313.55 69.5093 312.632 72.7947 312.632 77.104C312.632 81.3707 313.55 84.5707 315.384 86.704C317.219 88.8373 319.992 89.904 323.704 89.904C324.984 89.904 326.328 89.776 327.736 89.52C329.144 89.264 330.51 88.88 331.832 88.368V93.104C330.766 93.5733 329.464 93.936 327.928 94.192C326.392 94.4907 324.792 94.64 323.128 94.64ZM339.459 94V59.696H345.027V80.624C345.027 81.136 345.005 81.8827 344.963 82.864C344.92 83.8453 344.856 84.8267 344.771 85.808C344.728 86.7467 344.685 87.5147 344.643 88.112H344.707L361.347 59.696H368.323V94H362.755V73.776C362.755 73.0933 362.755 72.24 362.755 71.216C362.797 70.1493 362.84 69.1253 362.883 68.144C362.925 67.12 362.968 66.3307 363.011 65.776H362.947L346.435 94H339.459ZM374.729 94L385.929 77.936L386.505 80.368C383.305 80.0267 380.809 78.96 379.017 77.168C377.267 75.3333 376.414 72.944 376.457 70C376.457 66.7573 377.523 64.24 379.657 62.448C381.79 60.6133 384.777 59.696 388.617 59.696H404.041V94H398.409V80.752H390.217L381.193 94H374.729ZM390.409 76.144H398.409V64.368H389.321C386.974 64.368 385.203 64.8587 384.009 65.84C382.814 66.7787 382.238 68.1867 382.281 70.064C382.238 72.0693 382.899 73.584 384.265 74.608C385.63 75.632 387.678 76.144 390.409 76.144ZM114.563 174V128.304H149.059V174H143.363V133.36H120.323V174H114.563ZM173.596 174.64C170.354 174.64 167.474 173.979 164.956 172.656C162.482 171.333 160.54 169.371 159.132 166.768C157.767 164.123 157.084 160.901 157.084 157.104C157.084 153.349 157.703 150.128 158.94 147.44C160.22 144.752 161.991 142.683 164.252 141.232C166.556 139.781 169.223 139.056 172.252 139.056C175.196 139.056 177.714 139.696 179.804 140.976C181.938 142.256 183.559 144.069 184.668 146.416C185.82 148.72 186.396 151.429 186.396 154.544V158.064H162.972C163.1 161.904 164.103 164.827 165.98 166.832C167.858 168.837 170.482 169.84 173.852 169.84C176.028 169.84 177.948 169.648 179.612 169.264C181.319 168.837 183.068 168.24 184.86 167.472V172.4C183.111 173.168 181.383 173.723 179.676 174.064C177.97 174.448 175.943 174.64 173.596 174.64ZM163.1 153.456H180.444C180.444 151.493 180.146 149.787 179.548 148.336C178.951 146.885 178.034 145.755 176.796 144.944C175.602 144.091 174.066 143.664 172.188 143.664C169.543 143.664 167.431 144.539 165.852 146.288C164.316 147.995 163.399 150.384 163.1 153.456ZM199.389 174V144.432H188.317V139.696H216.157V144.432H204.957V174H199.389ZM221.267 189.36V139.696H225.875L226.644 144.368H226.899C227.582 143.387 228.393 142.491 229.332 141.68C230.313 140.869 231.465 140.229 232.788 139.76C234.153 139.291 235.753 139.056 237.587 139.056C241.811 139.056 245.204 140.528 247.764 143.472C250.366 146.416 251.667 150.853 251.667 156.784C251.667 160.667 251.07 163.952 249.875 166.64C248.723 169.285 247.081 171.291 244.948 172.656C242.857 173.979 240.382 174.64 237.524 174.64C235.774 174.64 234.217 174.405 232.851 173.936C231.486 173.467 230.313 172.869 229.332 172.144C228.393 171.376 227.582 170.544 226.899 169.648H226.516C226.601 170.373 226.686 171.291 226.771 172.4C226.857 173.509 226.899 174.469 226.899 175.28V189.36H221.267ZM236.691 169.968C238.74 169.968 240.425 169.392 241.748 168.24C243.113 167.088 244.116 165.531 244.756 163.568C245.438 161.563 245.78 159.28 245.78 156.72C245.78 152.795 245.033 149.659 243.54 147.312C242.046 144.965 239.721 143.792 236.563 143.792C234.259 143.792 232.382 144.24 230.932 145.136C229.524 145.989 228.499 147.291 227.859 149.04C227.219 150.789 226.899 153.008 226.899 155.696V156.784C226.899 159.6 227.198 161.989 227.795 163.952C228.393 165.915 229.395 167.408 230.804 168.432C232.254 169.456 234.217 169.968 236.691 169.968ZM272.365 174.64C270.104 174.64 268.013 174.256 266.093 173.488C264.173 172.677 262.488 171.504 261.037 169.968C259.629 168.432 258.52 166.576 257.709 164.4C256.941 162.181 256.557 159.643 256.557 156.784C256.557 152.987 257.197 149.787 258.477 147.184C259.8 144.539 261.656 142.533 264.045 141.168C266.434 139.76 269.272 139.056 272.557 139.056C275.672 139.056 278.402 139.76 280.749 141.168C283.138 142.533 285.016 144.539 286.381 147.184C287.746 149.829 288.429 153.051 288.429 156.848C288.429 159.664 288.045 162.181 287.277 164.4C286.552 166.619 285.485 168.496 284.077 170.032C282.669 171.525 280.962 172.677 278.957 173.488C276.994 174.256 274.797 174.64 272.365 174.64ZM272.493 169.968C275.906 169.968 278.424 168.795 280.045 166.448C281.666 164.059 282.477 160.859 282.477 156.848C282.477 152.752 281.666 149.552 280.045 147.248C278.424 144.901 275.885 143.728 272.429 143.728C268.973 143.728 266.456 144.88 264.877 147.184C263.298 149.488 262.509 152.688 262.509 156.784C262.509 160.837 263.298 164.059 264.877 166.448C266.498 168.795 269.037 169.968 272.493 169.968ZM295.645 174V139.696H309.405C312.221 139.696 314.589 140.037 316.509 140.72C318.429 141.36 319.88 142.32 320.861 143.6C321.842 144.88 322.333 146.459 322.333 148.336C322.333 150.341 321.757 151.963 320.605 153.2C319.453 154.437 317.725 155.291 315.421 155.76V156.016C318.066 156.357 320.05 157.232 321.373 158.64C322.738 160.048 323.421 161.883 323.421 164.144C323.421 165.979 322.952 167.643 322.013 169.136C321.074 170.629 319.581 171.824 317.533 172.72C315.485 173.573 312.797 174 309.469 174H295.645ZM301.277 169.392H308.829C311.816 169.392 314.013 168.965 315.421 168.112C316.829 167.216 317.533 165.829 317.533 163.952C317.533 162.075 316.808 160.688 315.357 159.792C313.949 158.853 311.73 158.384 308.701 158.384H301.277V169.392ZM301.277 153.84H308.061C311.005 153.84 313.16 153.456 314.525 152.688C315.89 151.92 316.573 150.704 316.573 149.04C316.573 147.419 315.954 146.224 314.717 145.456C313.522 144.688 311.645 144.304 309.085 144.304H301.277V153.84ZM330.49 174V139.696H336.122V153.968H353.274V139.696H358.906V174H353.274V158.704H336.122V174H330.49ZM376.842 174.64C374.496 174.64 372.512 174.256 370.89 173.488C369.269 172.72 368.032 171.589 367.178 170.096C366.368 168.603 365.962 166.811 365.962 164.72C365.962 161.179 367.306 158.448 369.994 156.528C372.682 154.608 376.736 153.563 382.154 153.392L387.978 153.2V151.216C387.978 148.613 387.36 146.715 386.122 145.52C384.928 144.325 383.008 143.728 380.362 143.728C378.784 143.728 377.162 143.941 375.498 144.368C373.834 144.752 372.085 145.349 370.25 146.16L368.394 141.744C370.528 140.805 372.554 140.123 374.474 139.696C376.437 139.269 378.421 139.056 380.426 139.056C384.778 139.056 388.042 140.016 390.218 141.936C392.394 143.856 393.482 146.736 393.482 150.576V174H389.386L388.298 169.072H388.042C387.018 170.352 385.952 171.419 384.842 172.272C383.733 173.083 382.517 173.68 381.194 174.064C379.914 174.448 378.464 174.64 376.842 174.64ZM378.25 170.096C380.981 170.096 383.264 169.307 385.098 167.728C386.976 166.107 387.914 163.611 387.914 160.24V157.36L382.858 157.552C379.018 157.723 376.202 158.363 374.41 159.472C372.661 160.581 371.786 162.245 371.786 164.464C371.786 166.299 372.341 167.707 373.45 168.688C374.56 169.627 376.16 170.096 378.25 170.096ZM141.235 254V208.304H166.131V213.36H146.995V254H141.235ZM170.372 269.36C169.391 269.36 168.516 269.296 167.748 269.168C167.023 269.083 166.404 268.976 165.892 268.848V263.792C166.447 263.92 167.001 264.027 167.556 264.112C168.153 264.197 168.793 264.24 169.476 264.24C170.799 264.24 171.929 264.005 172.868 263.536C173.849 263.109 174.681 262.469 175.364 261.616C176.089 260.805 176.665 259.824 177.092 258.672L179.844 251.696V256.56L165.06 219.696H171.076L178.5 239.216C178.927 240.368 179.311 241.477 179.652 242.544C180.036 243.611 180.377 244.656 180.676 245.68C180.975 246.661 181.209 247.621 181.38 248.56H181.636C181.892 247.493 182.276 246.107 182.788 244.4C183.343 242.651 183.94 240.901 184.58 239.152L191.556 219.696H197.636L182.852 258.736C182.041 260.869 181.081 262.725 179.972 264.304C178.905 265.925 177.583 267.163 176.004 268.016C174.468 268.912 172.591 269.36 170.372 269.36ZM201.782 269.36V219.696H206.39L207.158 224.368H207.414C208.097 223.387 208.908 222.491 209.846 221.68C210.828 220.869 211.98 220.229 213.302 219.76C214.668 219.291 216.268 219.056 218.102 219.056C222.326 219.056 225.718 220.528 228.278 223.472C230.881 226.416 232.182 230.853 232.182 236.784C232.182 240.667 231.585 243.952 230.39 246.64C229.238 249.285 227.596 251.291 225.462 252.656C223.372 253.979 220.897 254.64 218.038 254.64C216.289 254.64 214.732 254.405 213.366 253.936C212.001 253.467 210.828 252.869 209.846 252.144C208.908 251.376 208.097 250.544 207.414 249.648H207.03C207.116 250.373 207.201 251.291 207.286 252.4C207.372 253.509 207.414 254.469 207.414 255.28V269.36H201.782ZM217.206 249.968C219.254 249.968 220.94 249.392 222.263 248.24C223.628 247.088 224.63 245.531 225.271 243.568C225.953 241.563 226.295 239.28 226.295 236.72C226.295 232.795 225.548 229.659 224.055 227.312C222.561 224.965 220.236 223.792 217.078 223.792C214.774 223.792 212.897 224.24 211.446 225.136C210.038 225.989 209.014 227.291 208.374 229.04C207.734 230.789 207.414 233.008 207.414 235.696V236.784C207.414 239.6 207.713 241.989 208.31 243.952C208.908 245.915 209.91 247.408 211.318 248.432C212.769 249.456 214.732 249.968 217.206 249.968ZM239.44 254V219.696H245.072V232.368H251.856C256.549 232.368 260.069 233.264 262.416 235.056C264.805 236.805 266 239.451 266 242.992C266 246.491 264.784 249.2 262.352 251.12C259.963 253.04 256.464 254 251.856 254H239.44ZM245.072 249.328H251.856C254.672 249.328 256.763 248.816 258.128 247.792C259.493 246.725 260.176 245.168 260.176 243.12C260.176 241.029 259.515 239.493 258.192 238.512C256.869 237.531 254.757 237.04 251.856 237.04H245.072V249.328ZM287.179 254.64C283.936 254.64 281.056 253.979 278.539 252.656C276.064 251.333 274.123 249.371 272.715 246.768C271.35 244.123 270.667 240.901 270.667 237.104C270.667 233.349 271.286 230.128 272.523 227.44C273.803 224.752 275.574 222.683 277.835 221.232C280.139 219.781 282.806 219.056 285.835 219.056C288.779 219.056 291.296 219.696 293.387 220.976C295.52 222.256 297.142 224.069 298.251 226.416C299.403 228.72 299.979 231.429 299.979 234.544V238.064H276.555C276.683 241.904 277.686 244.827 279.563 246.832C281.44 248.837 284.064 249.84 287.435 249.84C289.611 249.84 291.531 249.648 293.195 249.264C294.902 248.837 296.651 248.24 298.443 247.472V252.4C296.694 253.168 294.966 253.723 293.259 254.064C291.552 254.448 289.526 254.64 287.179 254.64ZM276.683 233.456H294.027C294.027 231.493 293.728 229.787 293.131 228.336C292.534 226.885 291.616 225.755 290.379 224.944C289.184 224.091 287.648 223.664 285.771 223.664C283.126 223.664 281.014 224.539 279.435 226.288C277.899 227.995 276.982 230.384 276.683 233.456ZM307.005 254V219.696H320.765C323.581 219.696 325.949 220.037 327.869 220.72C329.789 221.36 331.24 222.32 332.221 223.6C333.202 224.88 333.693 226.459 333.693 228.336C333.693 230.341 333.117 231.963 331.965 233.2C330.813 234.437 329.085 235.291 326.781 235.76V236.016C329.426 236.357 331.41 237.232 332.733 238.64C334.098 240.048 334.781 241.883 334.781 244.144C334.781 245.979 334.312 247.643 333.373 249.136C332.434 250.629 330.941 251.824 328.893 252.72C326.845 253.573 324.157 254 320.829 254H307.005ZM312.637 249.392H320.189C323.176 249.392 325.373 248.965 326.781 248.112C328.189 247.216 328.893 245.829 328.893 243.952C328.893 242.075 328.168 240.688 326.717 239.792C325.309 238.853 323.09 238.384 320.061 238.384H312.637V249.392ZM312.637 233.84H319.421C322.365 233.84 324.52 233.456 325.885 232.688C327.25 231.92 327.933 230.704 327.933 229.04C327.933 227.419 327.314 226.224 326.077 225.456C324.882 224.688 323.005 224.304 320.445 224.304H312.637V233.84ZM350.17 254.64C347.823 254.64 345.839 254.256 344.218 253.488C342.597 252.72 341.359 251.589 340.506 250.096C339.695 248.603 339.29 246.811 339.29 244.72C339.29 241.179 340.634 238.448 343.322 236.528C346.01 234.608 350.063 233.563 355.482 233.392L361.306 233.2V231.216C361.306 228.613 360.687 226.715 359.45 225.52C358.255 224.325 356.335 223.728 353.69 223.728C352.111 223.728 350.49 223.941 348.826 224.368C347.162 224.752 345.413 225.349 343.578 226.16L341.722 221.744C343.855 220.805 345.882 220.123 347.802 219.696C349.765 219.269 351.749 219.056 353.754 219.056C358.106 219.056 361.37 220.016 363.546 221.936C365.722 223.856 366.81 226.736 366.81 230.576V254H362.714L361.626 249.072H361.37C360.346 250.352 359.279 251.419 358.17 252.272C357.061 253.083 355.845 253.68 354.522 254.064C353.242 254.448 351.791 254.64 350.17 254.64ZM351.578 250.096C354.309 250.096 356.591 249.307 358.426 247.728C360.303 246.107 361.242 243.611 361.242 240.24V237.36L356.186 237.552C352.346 237.723 349.53 238.363 347.738 239.472C345.989 240.581 345.114 242.245 345.114 244.464C345.114 246.299 345.669 247.707 346.778 248.688C347.887 249.627 349.487 250.096 351.578 250.096Z" fill="white"/>
<line x1="500" y1="148" x2="560" y2="148" stroke="white" stroke-width="4"/>
<rect x="560" width="1400" height="300" rx="70" fill="white"/>
<mask id="mask0_23_1363" style="mask-type:alpha" maskUnits="userSpaceOnUse" x="560" y="0" width="392" height="300">
<path d="M560 70C560 31.3401 591.34 0 630 0H952V300H630C591.34 300 560 268.66 560 230V70Z" fill="#D9D9D9"/>
</mask>
<g mask="url(#mask0_23_1363)">
<path d="M630 2H953.222V298H630C592.445 298 562 267.555 562 230V70L562.006 69.1211C562.476 31.9708 592.738 2 630 2Z" fill="#007D32" stroke="white" stroke-width="4"/>
<path d="M700.646 130H689.996V93.7L681.671 102.175L675.596 95.8L691.346 79.975H700.646V130ZM726.831 130.9C721.181 130.9 716.406 129.7 712.506 127.3C708.656 124.9 706.731 121.475 706.731 117.025C706.731 114.125 707.731 111.55 709.731 109.3C711.731 107 714.306 105.3 717.456 104.2C710.856 101.9 707.556 97.975 707.556 92.425C707.556 88.075 709.456 84.8 713.256 82.6C717.106 80.35 721.631 79.225 726.831 79.225C730.131 79.225 733.181 79.65 735.981 80.5C738.781 81.35 741.156 82.825 743.106 84.925C745.106 86.975 746.106 89.475 746.106 92.425C746.106 97.925 742.781 101.85 736.131 104.2C739.281 105.3 741.856 107 743.856 109.3C745.906 111.55 746.931 114.125 746.931 117.025C746.931 121.425 744.981 124.85 741.081 127.3C737.181 129.7 732.431 130.9 726.831 130.9ZM726.831 100C728.881 99.7 730.781 99.05 732.531 98.05C734.331 97.05 735.231 95.725 735.231 94.075C735.231 92.325 734.456 90.95 732.906 89.95C731.356 88.9 729.331 88.375 726.831 88.375C724.331 88.375 722.281 88.9 720.681 89.95C719.131 90.95 718.356 92.325 718.356 94.075C718.356 95.725 719.256 97.05 721.056 98.05C722.856 99.05 724.781 99.7 726.831 100ZM726.831 121.75C729.431 121.75 731.631 121.2 733.431 120.1C735.231 118.95 736.131 117.475 736.131 115.675C736.131 113.825 735.106 112.325 733.056 111.175C731.056 110.025 728.981 109.3 726.831 109C724.681 109.3 722.581 110.025 720.531 111.175C718.531 112.325 717.531 113.825 717.531 115.675C717.531 117.475 718.406 118.95 720.156 120.1C721.956 121.2 724.181 121.75 726.831 121.75ZM772.24 130.9C765.04 130.9 759.64 128.5 756.04 123.7C752.44 118.9 750.64 112.7 750.64 105.1C750.64 97.35 752.715 91.1 756.865 86.35C761.015 81.6 766.715 79.225 773.965 79.225C779.765 79.225 784.69 80.95 788.74 84.4L783.94 92.575C781.19 89.975 777.865 88.675 773.965 88.675C770.315 88.675 767.315 90.05 764.965 92.8C762.615 95.5 761.44 98.85 761.44 102.85C761.44 103.3 761.465 103.65 761.515 103.9C762.765 102.1 764.565 100.575 766.915 99.325C769.265 98.075 771.74 97.45 774.34 97.45C779.09 97.45 783.115 98.9 786.415 101.8C789.715 104.65 791.365 108.625 791.365 113.725C791.365 118.675 789.59 122.775 786.04 126.025C782.49 129.275 777.89 130.9 772.24 130.9ZM771.64 121.45C774.34 121.45 776.49 120.7 778.09 119.2C779.74 117.7 780.565 116 780.565 114.1C780.565 111.65 779.665 109.8 777.865 108.55C776.065 107.25 773.865 106.6 771.265 106.6C767.265 106.6 764.015 108.175 761.515 111.325C761.765 114.125 762.715 116.525 764.365 118.525C766.015 120.475 768.44 121.45 771.64 121.45ZM827.095 127.075C823.895 129.625 820.02 130.9 815.47 130.9C810.92 130.9 807.02 129.625 803.77 127.075C800.57 124.475 798.27 121.275 796.87 117.475C795.47 113.675 794.77 109.525 794.77 105.025C794.77 100.525 795.47 96.375 796.87 92.575C798.27 88.775 800.57 85.6 803.77 83.05C807.02 80.5 810.92 79.225 815.47 79.225C820.02 79.225 823.895 80.5 827.095 83.05C830.295 85.6 832.595 88.775 833.995 92.575C835.445 96.375 836.17 100.525 836.17 105.025C836.17 109.525 835.445 113.675 833.995 117.475C832.595 121.275 830.295 124.475 827.095 127.075ZM807.97 116.95C809.57 119.95 812.07 121.45 815.47 121.45C818.87 121.45 821.345 119.95 822.895 116.95C824.495 113.95 825.295 109.975 825.295 105.025C825.295 100.075 824.495 96.125 822.895 93.175C821.345 90.175 818.87 88.675 815.47 88.675C812.07 88.675 809.57 90.175 807.97 93.175C806.37 96.125 805.57 100.075 805.57 105.025C805.57 109.975 806.37 113.95 807.97 116.95ZM699.384 220H688.734V183.7L680.409 192.175L674.334 185.8L690.084 169.975H699.384V220ZM722.569 220.825C716.619 220.825 711.719 219.1 707.869 215.65L712.594 207.475C715.344 210.075 718.669 211.375 722.569 211.375C726.469 211.375 729.519 210 731.719 207.25C733.969 204.45 735.094 201.125 735.094 197.275V196.15C733.794 197.95 731.969 199.475 729.619 200.725C727.269 201.975 724.794 202.6 722.194 202.6C717.444 202.6 713.394 201.175 710.044 198.325C706.744 195.425 705.094 191.425 705.094 186.325C705.094 181.375 706.869 177.275 710.419 174.025C714.019 170.775 718.644 169.15 724.294 169.15C729.144 169.15 733.219 170.35 736.519 172.75C739.869 175.15 742.244 178.25 743.644 182.05C745.094 185.8 745.819 190.125 745.819 195.025C745.819 202.725 743.744 208.95 739.594 213.7C735.494 218.45 729.819 220.825 722.569 220.825ZM725.194 193.45C729.194 193.45 732.469 191.9 735.019 188.8C734.769 186 733.819 183.6 732.169 181.6C730.519 179.6 728.069 178.6 724.819 178.6C722.119 178.6 719.969 179.35 718.369 180.85C716.769 182.35 715.969 184.05 715.969 185.95C715.969 188.4 716.869 190.275 718.669 191.575C720.469 192.825 722.644 193.45 725.194 193.45ZM781.849 217.075C778.649 219.625 774.774 220.9 770.224 220.9C765.674 220.9 761.774 219.625 758.524 217.075C755.324 214.475 753.024 211.275 751.624 207.475C750.224 203.675 749.524 199.525 749.524 195.025C749.524 190.525 750.224 186.375 751.624 182.575C753.024 178.775 755.324 175.6 758.524 173.05C761.774 170.5 765.674 169.225 770.224 169.225C774.774 169.225 778.649 170.5 781.849 173.05C785.049 175.6 787.349 178.775 788.749 182.575C790.199 186.375 790.924 190.525 790.924 195.025C790.924 199.525 790.199 203.675 788.749 207.475C787.349 211.275 785.049 214.475 781.849 217.075ZM762.724 206.95C764.324 209.95 766.824 211.45 770.224 211.45C773.624 211.45 776.099 209.95 777.649 206.95C779.249 203.95 780.049 199.975 780.049 195.025C780.049 190.075 779.249 186.125 777.649 183.175C776.099 180.175 773.624 178.675 770.224 178.675C766.824 178.675 764.324 180.175 762.724 183.175C761.124 186.125 760.324 190.075 760.324 195.025C760.324 199.975 761.124 203.95 762.724 206.95ZM826.857 217.075C823.657 219.625 819.782 220.9 815.232 220.9C810.682 220.9 806.782 219.625 803.532 217.075C800.332 214.475 798.032 211.275 796.632 207.475C795.232 203.675 794.532 199.525 794.532 195.025C794.532 190.525 795.232 186.375 796.632 182.575C798.032 178.775 800.332 175.6 803.532 173.05C806.782 170.5 810.682 169.225 815.232 169.225C819.782 169.225 823.657 170.5 826.857 173.05C830.057 175.6 832.357 178.775 833.757 182.575C835.207 186.375 835.932 190.525 835.932 195.025C835.932 199.525 835.207 203.675 833.757 207.475C832.357 211.275 830.057 214.475 826.857 217.075ZM807.732 206.95C809.332 209.95 811.832 211.45 815.232 211.45C818.632 211.45 821.107 209.95 822.657 206.95C824.257 203.95 825.057 199.975 825.057 195.025C825.057 190.075 824.257 186.125 822.657 183.175C821.107 180.175 818.632 178.675 815.232 178.675C811.832 178.675 809.332 180.175 807.732 183.175C806.132 186.125 805.332 190.075 805.332 195.025C805.332 199.975 806.132 203.95 807.732 206.95Z" fill="white"/>
</g>
<path d="M999.275 178V124.45H1006.03V153.85C1006.03 155.5 1006 157.35 1005.95 159.4C1005.9 161.45 1005.83 163.325 1005.73 165.025C1005.68 166.725 1005.6 167.975 1005.5 168.775H1005.8L1034.15 124.45H1041.43V178H1034.68V148.9C1034.68 147.55 1034.7 146.1 1034.75 144.55C1034.8 142.95 1034.85 141.425 1034.9 139.975C1035 138.475 1035.08 137.15 1035.13 136C1035.18 134.85 1035.23 134 1035.28 133.45H1034.98L1006.48 178H999.275ZM1053.56 178V137.8H1069.69C1072.99 137.8 1075.76 138.2 1078.01 139C1080.26 139.75 1081.96 140.875 1083.11 142.375C1084.26 143.875 1084.84 145.725 1084.84 147.925C1084.84 150.275 1084.16 152.175 1082.81 153.625C1081.46 155.075 1079.44 156.075 1076.74 156.625V156.925C1079.84 157.325 1082.16 158.35 1083.71 160C1085.31 161.65 1086.11 163.8 1086.11 166.45C1086.11 168.6 1085.56 170.55 1084.46 172.3C1083.36 174.05 1081.61 175.45 1079.21 176.5C1076.81 177.5 1073.66 178 1069.76 178H1053.56ZM1060.16 172.6H1069.01C1072.51 172.6 1075.09 172.1 1076.74 171.1C1078.39 170.05 1079.21 168.425 1079.21 166.225C1079.21 164.025 1078.36 162.4 1076.66 161.35C1075.01 160.25 1072.41 159.7 1068.86 159.7H1060.16V172.6ZM1060.16 154.375H1068.11C1071.56 154.375 1074.09 153.925 1075.69 153.025C1077.29 152.125 1078.09 150.7 1078.09 148.75C1078.09 146.85 1077.36 145.45 1075.91 144.55C1074.51 143.65 1072.31 143.2 1069.31 143.2H1060.16V154.375ZM1104.15 178.75C1101.4 178.75 1099.07 178.3 1097.17 177.4C1095.27 176.5 1093.82 175.175 1092.82 173.425C1091.87 171.675 1091.4 169.575 1091.4 167.125C1091.4 162.975 1092.97 159.775 1096.12 157.525C1099.27 155.275 1104.02 154.05 1110.37 153.85L1117.2 153.625V151.3C1117.2 148.25 1116.47 146.025 1115.02 144.625C1113.62 143.225 1111.37 142.525 1108.27 142.525C1106.42 142.525 1104.52 142.775 1102.57 143.275C1100.62 143.725 1098.57 144.425 1096.42 145.375L1094.25 140.2C1096.75 139.1 1099.12 138.3 1101.37 137.8C1103.67 137.3 1106 137.05 1108.35 137.05C1113.45 137.05 1117.27 138.175 1119.82 140.425C1122.37 142.675 1123.65 146.05 1123.65 150.55V178H1118.85L1117.57 172.225H1117.27C1116.07 173.725 1114.82 174.975 1113.52 175.975C1112.22 176.925 1110.8 177.625 1109.25 178.075C1107.75 178.525 1106.05 178.75 1104.15 178.75ZM1105.8 173.425C1109 173.425 1111.67 172.5 1113.82 170.65C1116.02 168.75 1117.12 165.825 1117.12 161.875V158.5L1111.2 158.725C1106.7 158.925 1103.4 159.675 1101.3 160.975C1099.25 162.275 1098.22 164.225 1098.22 166.825C1098.22 168.975 1098.87 170.625 1100.17 171.775C1101.47 172.875 1103.35 173.425 1105.8 173.425ZM1134.57 178V137.8H1141.17V154.525H1161.27V137.8H1167.87V178H1161.27V160.075H1141.17V178H1134.57Z" fill="#007D32"/>
<path d="M70 1214H470C507.555 1214 538 1244.44 538 1282V1442C538 1479.56 507.555 1510 470 1510H70C32.4446 1510 2 1479.56 2 1442V1282L2.00586 1281.12C2.47644 1243.97 32.738 1214 70 1214Z" fill="#028D3A"/>
<path d="M70 1214H470C507.555 1214 538 1244.44 538 1282V1442C538 1479.56 507.555 1510 470 1510H70C32.4446 1510 2 1479.56 2 1442V1282L2.00586 1281.12C2.47644 1243.97 32.738 1214 70 1214Z" stroke="white" stroke-width="4"/>
<path d="M154.86 1346V1300.3H180.396V1305.36H160.62V1319.63H179.244V1324.62H160.62V1340.94H180.396V1346H154.86ZM188.375 1346V1311.7H202.135C204.951 1311.7 207.319 1312.04 209.239 1312.72C211.159 1313.36 212.61 1314.32 213.591 1315.6C214.572 1316.88 215.063 1318.46 215.063 1320.34C215.063 1322.34 214.487 1323.96 213.335 1325.2C212.183 1326.44 210.455 1327.29 208.151 1327.76V1328.02C210.796 1328.36 212.78 1329.23 214.103 1330.64C215.468 1332.05 216.151 1333.88 216.151 1336.14C216.151 1337.98 215.682 1339.64 214.743 1341.14C213.804 1342.63 212.311 1343.82 210.263 1344.72C208.215 1345.57 205.527 1346 202.199 1346H188.375ZM194.007 1341.39H201.559C204.546 1341.39 206.743 1340.97 208.151 1340.11C209.559 1339.22 210.263 1337.83 210.263 1335.95C210.263 1334.07 209.538 1332.69 208.087 1331.79C206.679 1330.85 204.46 1330.38 201.431 1330.38H194.007V1341.39ZM194.007 1325.84H200.791C203.735 1325.84 205.89 1325.46 207.255 1324.69C208.62 1323.92 209.303 1322.7 209.303 1321.04C209.303 1319.42 208.684 1318.22 207.447 1317.46C206.252 1316.69 204.375 1316.3 201.815 1316.3H194.007V1325.84ZM223.22 1346V1311.7H244.468V1316.43H228.852V1346H223.22ZM263.522 1346.64C260.279 1346.64 257.399 1345.98 254.882 1344.66C252.407 1343.33 250.466 1341.37 249.058 1338.77C247.692 1336.12 247.01 1332.9 247.01 1329.1C247.01 1325.35 247.628 1322.13 248.866 1319.44C250.146 1316.75 251.916 1314.68 254.178 1313.23C256.482 1311.78 259.148 1311.06 262.178 1311.06C265.122 1311.06 267.639 1311.7 269.73 1312.98C271.863 1314.26 273.484 1316.07 274.594 1318.42C275.746 1320.72 276.322 1323.43 276.322 1326.54V1330.06H252.898C253.026 1333.9 254.028 1336.83 255.906 1338.83C257.783 1340.84 260.407 1341.84 263.778 1341.84C265.954 1341.84 267.874 1341.65 269.538 1341.26C271.244 1340.84 272.994 1340.24 274.786 1339.47V1344.4C273.036 1345.17 271.308 1345.72 269.602 1346.06C267.895 1346.45 265.868 1346.64 263.522 1346.64ZM253.026 1325.46H270.37C270.37 1323.49 270.071 1321.79 269.474 1320.34C268.876 1318.89 267.959 1317.75 266.722 1316.94C265.527 1316.09 263.991 1315.66 262.114 1315.66C259.468 1315.66 257.356 1316.54 255.778 1318.29C254.242 1319.99 253.324 1322.38 253.026 1325.46ZM283.348 1346V1311.7H288.98V1325.97H306.132V1311.7H311.764V1346H306.132V1330.7H288.98V1346H283.348ZM321.38 1346V1311.7H326.948V1332.62C326.948 1333.14 326.927 1333.88 326.884 1334.86C326.841 1335.85 326.777 1336.83 326.692 1337.81C326.649 1338.75 326.607 1339.51 326.564 1340.11H326.628L343.268 1311.7H350.244V1346H344.676V1325.78C344.676 1325.09 344.676 1324.24 344.676 1323.22C344.719 1322.15 344.761 1321.13 344.804 1320.14C344.847 1319.12 344.889 1318.33 344.932 1317.78H344.868L328.356 1346H321.38ZM356.65 1346L367.85 1329.94L368.426 1332.37C365.226 1332.03 362.73 1330.96 360.938 1329.17C359.189 1327.33 358.335 1324.94 358.378 1322C358.378 1318.76 359.445 1316.24 361.578 1314.45C363.711 1312.61 366.698 1311.7 370.538 1311.7H385.962V1346H380.33V1332.75H372.138L363.114 1346H356.65ZM372.33 1328.14H380.33V1316.37H371.242C368.895 1316.37 367.125 1316.86 365.93 1317.84C364.735 1318.78 364.159 1320.19 364.202 1322.06C364.159 1324.07 364.821 1325.58 366.186 1326.61C367.551 1327.63 369.599 1328.14 372.33 1328.14ZM72.7475 1426L67.2435 1411.86H49.1315L43.6915 1426H37.8675L55.7235 1380.11H60.9075L78.6995 1426H72.7475ZM60.3955 1392.91C60.2675 1392.57 60.0542 1391.95 59.7555 1391.06C59.4568 1390.16 59.1582 1389.24 58.8595 1388.3C58.6035 1387.32 58.3902 1386.58 58.2195 1386.06C58.0062 1386.92 57.7715 1387.79 57.5155 1388.69C57.3022 1389.54 57.0675 1390.33 56.8115 1391.06C56.5982 1391.78 56.4062 1392.4 56.2355 1392.91L51.0515 1406.74H65.5155L60.3955 1392.91ZM80.856 1426.45C80.216 1426.45 79.6187 1426.38 79.064 1426.26C78.5093 1426.17 77.9547 1426.04 77.4 1425.87V1421.01C77.9547 1421.14 78.4027 1421.22 78.744 1421.26C79.128 1421.31 79.512 1421.33 79.896 1421.33C80.92 1421.33 81.7733 1421.11 82.456 1420.69C83.1387 1420.22 83.672 1419.43 84.056 1418.32C84.4827 1417.21 84.7813 1415.63 84.952 1413.58C85.08 1412.09 85.1867 1410.64 85.272 1409.23C85.4 1407.82 85.5067 1406.31 85.592 1404.69C85.6773 1403.07 85.784 1401.21 85.912 1399.12C86.04 1397.03 86.168 1394.55 86.296 1391.7H109.528V1426H103.896V1396.43H91.16C91.032 1398.39 90.9253 1400.19 90.84 1401.81C90.7547 1403.43 90.6693 1404.94 90.584 1406.35C90.4987 1407.76 90.4133 1409.1 90.328 1410.38C90.2427 1411.66 90.136 1412.92 90.008 1414.16C89.5813 1418.6 88.6853 1421.75 87.32 1423.63C85.9547 1425.51 83.8 1426.45 80.856 1426.45ZM133.266 1426.64C130.024 1426.64 127.144 1425.98 124.626 1424.66C122.152 1423.33 120.21 1421.37 118.802 1418.77C117.437 1416.12 116.754 1412.9 116.754 1409.1C116.754 1405.35 117.373 1402.13 118.61 1399.44C119.89 1396.75 121.661 1394.68 123.922 1393.23C126.226 1391.78 128.893 1391.06 131.922 1391.06C134.866 1391.06 137.384 1391.7 139.474 1392.98C141.608 1394.26 143.229 1396.07 144.338 1398.42C145.49 1400.72 146.066 1403.43 146.066 1406.54V1410.06H122.642C122.77 1413.9 123.773 1416.83 125.65 1418.83C127.528 1420.84 130.152 1421.84 133.522 1421.84C135.698 1421.84 137.618 1421.65 139.282 1421.26C140.989 1420.84 142.738 1420.24 144.53 1419.47V1424.4C142.781 1425.17 141.053 1425.72 139.346 1426.06C137.64 1426.45 135.613 1426.64 133.266 1426.64ZM122.77 1405.46H140.114C140.114 1403.49 139.816 1401.79 139.218 1400.34C138.621 1398.89 137.704 1397.75 136.466 1396.94C135.272 1396.09 133.736 1395.66 131.858 1395.66C129.213 1395.66 127.101 1396.54 125.522 1398.29C123.986 1399.99 123.069 1402.38 122.77 1405.46ZM174.724 1426L163.012 1408.78L162.948 1408.27L174.404 1391.7H180.292L167.684 1409.87L167.428 1405.9L181.124 1426H174.724ZM153.092 1426V1391.7H158.724V1426H153.092ZM158.34 1410.83V1406.1H164.996V1410.83H158.34ZM198.514 1426.64C193.394 1426.64 189.384 1425.15 186.482 1422.16C183.624 1419.17 182.194 1414.84 182.194 1409.17C182.194 1405.37 182.856 1402.13 184.178 1399.44C185.501 1396.75 187.378 1394.68 189.81 1393.23C192.285 1391.78 195.25 1391.06 198.706 1391.06C200.37 1391.06 202.034 1391.23 203.698 1391.57C205.362 1391.91 206.813 1392.42 208.05 1393.1L206.322 1397.52C205 1396.92 203.762 1396.5 202.61 1396.24C201.458 1395.94 200.157 1395.79 198.706 1395.79C195.25 1395.79 192.605 1396.94 190.77 1399.25C188.936 1401.51 188.018 1404.79 188.018 1409.1C188.018 1413.37 188.936 1416.57 190.77 1418.7C192.605 1420.84 195.378 1421.9 199.09 1421.9C200.37 1421.9 201.714 1421.78 203.122 1421.52C204.53 1421.26 205.896 1420.88 207.218 1420.37V1425.1C206.152 1425.57 204.85 1425.94 203.314 1426.19C201.778 1426.49 200.178 1426.64 198.514 1426.64ZM223.165 1426.64C220.818 1426.64 218.834 1426.26 217.213 1425.49C215.592 1424.72 214.354 1423.59 213.501 1422.1C212.69 1420.6 212.285 1418.81 212.285 1416.72C212.285 1413.18 213.629 1410.45 216.317 1408.53C219.005 1406.61 223.058 1405.56 228.477 1405.39L234.301 1405.2V1403.22C234.301 1400.61 233.682 1398.71 232.445 1397.52C231.25 1396.33 229.33 1395.73 226.685 1395.73C225.106 1395.73 223.485 1395.94 221.821 1396.37C220.157 1396.75 218.408 1397.35 216.573 1398.16L214.717 1393.74C216.85 1392.81 218.877 1392.12 220.797 1391.7C222.76 1391.27 224.744 1391.06 226.749 1391.06C231.101 1391.06 234.365 1392.02 236.541 1393.94C238.717 1395.86 239.805 1398.74 239.805 1402.58V1426H235.709L234.621 1421.07H234.365C233.341 1422.35 232.274 1423.42 231.165 1424.27C230.056 1425.08 228.84 1425.68 227.517 1426.06C226.237 1426.45 224.786 1426.64 223.165 1426.64ZM224.573 1422.1C227.304 1422.1 229.586 1421.31 231.421 1419.73C233.298 1418.11 234.237 1415.61 234.237 1412.24V1409.36L229.181 1409.55C225.341 1409.72 222.525 1410.36 220.733 1411.47C218.984 1412.58 218.109 1414.25 218.109 1416.46C218.109 1418.3 218.664 1419.71 219.773 1420.69C220.882 1421.63 222.482 1422.1 224.573 1422.1ZM249.128 1426V1391.7H254.76V1405.97H271.912V1391.7H277.544V1426H271.912V1410.7H254.76V1426H249.128ZM282.36 1434.96V1421.26H285.944C286.925 1420.07 287.715 1418.81 288.312 1417.49C288.952 1416.17 289.464 1414.71 289.848 1413.14C290.232 1411.51 290.509 1409.7 290.68 1407.7C290.765 1406.93 290.829 1406.16 290.872 1405.39C290.957 1404.58 291.021 1403.62 291.064 1402.51C291.149 1401.36 291.235 1399.93 291.32 1398.22C291.405 1396.47 291.491 1394.3 291.576 1391.7H314.744V1421.26H319.928V1434.96H314.488V1426H287.8V1434.96H282.36ZM292.024 1421.26H309.176V1396.43H296.504C296.461 1397.75 296.397 1399.06 296.312 1400.34C296.227 1401.62 296.141 1402.85 296.056 1404.05C295.971 1405.2 295.885 1406.31 295.8 1407.38C295.544 1410.53 295.096 1413.22 294.456 1415.44C293.859 1417.66 293.048 1419.6 292.024 1421.26ZM324.755 1441.36V1391.7H329.363L330.131 1396.37H330.387C331.07 1395.39 331.88 1394.49 332.819 1393.68C333.8 1392.87 334.952 1392.23 336.275 1391.76C337.64 1391.29 339.24 1391.06 341.075 1391.06C345.299 1391.06 348.691 1392.53 351.251 1395.47C353.854 1398.42 355.155 1402.85 355.155 1408.78C355.155 1412.67 354.558 1415.95 353.363 1418.64C352.211 1421.29 350.568 1423.29 348.435 1424.66C346.344 1425.98 343.87 1426.64 341.011 1426.64C339.262 1426.64 337.704 1426.41 336.339 1425.94C334.974 1425.47 333.8 1424.87 332.819 1424.14C331.88 1423.38 331.07 1422.54 330.387 1421.65H330.003C330.088 1422.37 330.174 1423.29 330.259 1424.4C330.344 1425.51 330.387 1426.47 330.387 1427.28V1441.36H324.755ZM340.179 1421.97C342.227 1421.97 343.912 1421.39 345.235 1420.24C346.6 1419.09 347.603 1417.53 348.243 1415.57C348.926 1413.56 349.267 1411.28 349.267 1408.72C349.267 1404.79 348.52 1401.66 347.027 1399.31C345.534 1396.97 343.208 1395.79 340.051 1395.79C337.747 1395.79 335.87 1396.24 334.419 1397.14C333.011 1397.99 331.987 1399.29 331.347 1401.04C330.707 1402.79 330.387 1405.01 330.387 1407.7V1408.78C330.387 1411.6 330.686 1413.99 331.283 1415.95C331.88 1417.91 332.883 1419.41 334.291 1420.43C335.742 1421.46 337.704 1421.97 340.179 1421.97ZM375.853 1426.64C373.591 1426.64 371.501 1426.26 369.581 1425.49C367.661 1424.68 365.975 1423.5 364.525 1421.97C363.117 1420.43 362.007 1418.58 361.197 1416.4C360.429 1414.18 360.045 1411.64 360.045 1408.78C360.045 1404.99 360.685 1401.79 361.965 1399.18C363.287 1396.54 365.143 1394.53 367.533 1393.17C369.922 1391.76 372.759 1391.06 376.045 1391.06C379.159 1391.06 381.89 1391.76 384.237 1393.17C386.626 1394.53 388.503 1396.54 389.869 1399.18C391.234 1401.83 391.917 1405.05 391.917 1408.85C391.917 1411.66 391.533 1414.18 390.765 1416.4C390.039 1418.62 388.973 1420.5 387.565 1422.03C386.157 1423.53 384.45 1424.68 382.445 1425.49C380.482 1426.26 378.285 1426.64 375.853 1426.64ZM375.981 1421.97C379.394 1421.97 381.911 1420.79 383.533 1418.45C385.154 1416.06 385.965 1412.86 385.965 1408.85C385.965 1404.75 385.154 1401.55 383.533 1399.25C381.911 1396.9 379.373 1395.73 375.917 1395.73C372.461 1395.73 369.943 1396.88 368.365 1399.18C366.786 1401.49 365.997 1404.69 365.997 1408.78C365.997 1412.84 366.786 1416.06 368.365 1418.45C369.986 1420.79 372.525 1421.97 375.981 1421.97ZM399.133 1426V1391.7H412.893C415.709 1391.7 418.077 1392.04 419.997 1392.72C421.917 1393.36 423.367 1394.32 424.349 1395.6C425.33 1396.88 425.821 1398.46 425.821 1400.34C425.821 1402.34 425.245 1403.96 424.093 1405.2C422.941 1406.44 421.213 1407.29 418.909 1407.76V1408.02C421.554 1408.36 423.538 1409.23 424.861 1410.64C426.226 1412.05 426.909 1413.88 426.909 1416.14C426.909 1417.98 426.439 1419.64 425.501 1421.14C424.562 1422.63 423.069 1423.82 421.021 1424.72C418.973 1425.57 416.285 1426 412.957 1426H399.133ZM404.765 1421.39H412.317C415.303 1421.39 417.501 1420.97 418.909 1420.11C420.317 1419.22 421.021 1417.83 421.021 1415.95C421.021 1414.07 420.295 1412.69 418.845 1411.79C417.437 1410.85 415.218 1410.38 412.189 1410.38H404.765V1421.39ZM404.765 1405.84H411.549C414.493 1405.84 416.647 1405.46 418.013 1404.69C419.378 1403.92 420.061 1402.7 420.061 1401.04C420.061 1399.42 419.442 1398.22 418.205 1397.46C417.01 1396.69 415.133 1396.3 412.573 1396.3H404.765V1405.84ZM433.978 1426V1391.7H439.61V1405.97H456.762V1391.7H462.394V1426H456.762V1410.7H439.61V1426H433.978ZM480.33 1426.64C477.983 1426.64 475.999 1426.26 474.378 1425.49C472.757 1424.72 471.519 1423.59 470.666 1422.1C469.855 1420.6 469.45 1418.81 469.45 1416.72C469.45 1413.18 470.794 1410.45 473.482 1408.53C476.17 1406.61 480.223 1405.56 485.642 1405.39L491.466 1405.2V1403.22C491.466 1400.61 490.847 1398.71 489.61 1397.52C488.415 1396.33 486.495 1395.73 483.85 1395.73C482.271 1395.73 480.65 1395.94 478.986 1396.37C477.322 1396.75 475.573 1397.35 473.738 1398.16L471.882 1393.74C474.015 1392.81 476.042 1392.12 477.962 1391.7C479.925 1391.27 481.909 1391.06 483.914 1391.06C488.266 1391.06 491.53 1392.02 493.706 1393.94C495.882 1395.86 496.97 1398.74 496.97 1402.58V1426H492.874L491.786 1421.07H491.53C490.506 1422.35 489.439 1423.42 488.33 1424.27C487.221 1425.08 486.005 1425.68 484.682 1426.06C483.402 1426.45 481.951 1426.64 480.33 1426.64ZM481.738 1422.1C484.469 1422.1 486.751 1421.31 488.586 1419.73C490.463 1418.11 491.402 1415.61 491.402 1412.24V1409.36L486.346 1409.55C482.506 1409.72 479.69 1410.36 477.898 1411.47C476.149 1412.58 475.274 1414.25 475.274 1416.46C475.274 1418.3 475.829 1419.71 476.938 1420.69C478.047 1421.63 479.647 1422.1 481.738 1422.1Z" fill="white"/>
<line x1="540" y1="1360" x2="560" y2="1360" stroke="white" stroke-width="4"/>
<rect x="560" y="1212" width="1400" height="300" rx="70" fill="white"/>
<mask id="mask1_23_1363" style="mask-type:alpha" maskUnits="userSpaceOnUse" x="560" y="1212" width="392" height="300">
<path d="M560 1282C560 1243.34 591.34 1212 630 1212H952V1512H630C591.34 1512 560 1480.66 560 1442V1282Z" fill="#D9D9D9"/>
</mask>
<g mask="url(#mask1_23_1363)">
<path d="M630 1214H953.222V1510H630C592.445 1510 562 1479.56 562 1442V1282L562.006 1281.12C562.476 1243.97 592.738 1214 630 1214Z" fill="#007D32" stroke="white" stroke-width="4"/>
<path d="M719.16 1342H708.51V1305.7L700.185 1314.17L694.11 1307.8L709.86 1291.97H719.16V1342ZM742.345 1342.83C736.395 1342.83 731.495 1341.1 727.645 1337.65L732.37 1329.47C735.12 1332.07 738.445 1333.37 742.345 1333.37C746.245 1333.37 749.295 1332 751.495 1329.25C753.745 1326.45 754.87 1323.12 754.87 1319.27V1318.15C753.57 1319.95 751.745 1321.47 749.395 1322.73C747.045 1323.97 744.57 1324.6 741.97 1324.6C737.22 1324.6 733.17 1323.17 729.82 1320.32C726.52 1317.42 724.87 1313.42 724.87 1308.32C724.87 1303.37 726.645 1299.27 730.195 1296.02C733.795 1292.77 738.42 1291.15 744.07 1291.15C748.92 1291.15 752.995 1292.35 756.295 1294.75C759.645 1297.15 762.02 1300.25 763.42 1304.05C764.87 1307.8 765.595 1312.12 765.595 1317.02C765.595 1324.72 763.52 1330.95 759.37 1335.7C755.27 1340.45 749.595 1342.83 742.345 1342.83ZM744.97 1315.45C748.97 1315.45 752.245 1313.9 754.795 1310.8C754.545 1308 753.595 1305.6 751.945 1303.6C750.295 1301.6 747.845 1300.6 744.595 1300.6C741.895 1300.6 739.745 1301.35 738.145 1302.85C736.545 1304.35 735.745 1306.05 735.745 1307.95C735.745 1310.4 736.645 1312.27 738.445 1313.57C740.245 1314.82 742.42 1315.45 744.97 1315.45ZM792.625 1342H781.975V1305.7L773.65 1314.17L767.575 1307.8L783.325 1291.97H792.625V1342ZM815.81 1342.83C809.86 1342.83 804.96 1341.1 801.11 1337.65L805.835 1329.47C808.585 1332.07 811.91 1333.37 815.81 1333.37C819.71 1333.37 822.76 1332 824.96 1329.25C827.21 1326.45 828.335 1323.12 828.335 1319.27V1318.15C827.035 1319.95 825.21 1321.47 822.86 1322.73C820.51 1323.97 818.035 1324.6 815.435 1324.6C810.685 1324.6 806.635 1323.17 803.285 1320.32C799.985 1317.42 798.335 1313.42 798.335 1308.32C798.335 1303.37 800.11 1299.27 803.66 1296.02C807.26 1292.77 811.885 1291.15 817.535 1291.15C822.385 1291.15 826.46 1292.35 829.76 1294.75C833.11 1297.15 835.485 1300.25 836.885 1304.05C838.335 1307.8 839.06 1312.12 839.06 1317.02C839.06 1324.72 836.985 1330.95 832.835 1335.7C828.735 1340.45 823.06 1342.83 815.81 1342.83ZM818.435 1315.45C822.435 1315.45 825.71 1313.9 828.26 1310.8C828.01 1308 827.06 1305.6 825.41 1303.6C823.76 1301.6 821.31 1300.6 818.06 1300.6C815.36 1300.6 813.21 1301.35 811.61 1302.85C810.01 1304.35 809.21 1306.05 809.21 1307.95C809.21 1310.4 810.11 1312.27 811.91 1313.57C813.71 1314.82 815.885 1315.45 818.435 1315.45ZM712.092 1432H701.442V1395.7L693.117 1404.17L687.042 1397.8L702.792 1381.97H712.092V1432ZM735.277 1432.83C729.327 1432.83 724.427 1431.1 720.577 1427.65L725.302 1419.47C728.052 1422.07 731.377 1423.37 735.277 1423.37C739.177 1423.37 742.227 1422 744.427 1419.25C746.677 1416.45 747.802 1413.12 747.802 1409.27V1408.15C746.502 1409.95 744.677 1411.47 742.327 1412.73C739.977 1413.97 737.502 1414.6 734.902 1414.6C730.152 1414.6 726.102 1413.17 722.752 1410.32C719.452 1407.42 717.802 1403.42 717.802 1398.32C717.802 1393.37 719.577 1389.27 723.127 1386.02C726.727 1382.77 731.352 1381.15 737.002 1381.15C741.852 1381.15 745.927 1382.35 749.227 1384.75C752.577 1387.15 754.952 1390.25 756.352 1394.05C757.802 1397.8 758.527 1402.12 758.527 1407.02C758.527 1414.72 756.452 1420.95 752.302 1425.7C748.202 1430.45 742.527 1432.83 735.277 1432.83ZM737.902 1405.45C741.902 1405.45 745.177 1403.9 747.727 1400.8C747.477 1398 746.527 1395.6 744.877 1393.6C743.227 1391.6 740.777 1390.6 737.527 1390.6C734.827 1390.6 732.677 1391.35 731.077 1392.85C729.477 1394.35 728.677 1396.05 728.677 1397.95C728.677 1400.4 729.577 1402.27 731.377 1403.57C733.177 1404.82 735.352 1405.45 737.902 1405.45ZM779.407 1432.83C773.457 1432.83 768.557 1431.1 764.707 1427.65L769.432 1419.47C772.182 1422.07 775.507 1423.37 779.407 1423.37C783.307 1423.37 786.357 1422 788.557 1419.25C790.807 1416.45 791.932 1413.12 791.932 1409.27V1408.15C790.632 1409.95 788.807 1411.47 786.457 1412.73C784.107 1413.97 781.632 1414.6 779.032 1414.6C774.282 1414.6 770.232 1413.17 766.882 1410.32C763.582 1407.42 761.932 1403.42 761.932 1398.32C761.932 1393.37 763.707 1389.27 767.257 1386.02C770.857 1382.77 775.482 1381.15 781.132 1381.15C785.982 1381.15 790.057 1382.35 793.357 1384.75C796.707 1387.15 799.082 1390.25 800.482 1394.05C801.932 1397.8 802.657 1402.12 802.657 1407.02C802.657 1414.72 800.582 1420.95 796.432 1425.7C792.332 1430.45 786.657 1432.83 779.407 1432.83ZM782.032 1405.45C786.032 1405.45 789.307 1403.9 791.857 1400.8C791.607 1398 790.657 1395.6 789.007 1393.6C787.357 1391.6 784.907 1390.6 781.657 1390.6C778.957 1390.6 776.807 1391.35 775.207 1392.85C773.607 1394.35 772.807 1396.05 772.807 1397.95C772.807 1400.4 773.707 1402.27 775.507 1403.57C777.307 1404.82 779.482 1405.45 782.032 1405.45ZM844.987 1432H807.337V1423.67C818.037 1415.72 825.112 1410.07 828.562 1406.72C832.062 1403.32 833.812 1400.15 833.812 1397.2C833.812 1395.15 833.012 1393.55 831.412 1392.4C829.812 1391.25 827.912 1390.68 825.712 1390.68C820.462 1390.68 815.987 1392.6 812.287 1396.45L806.212 1389.4C808.562 1386.7 811.437 1384.67 814.837 1383.32C818.287 1381.92 821.837 1381.22 825.487 1381.22C830.987 1381.22 835.537 1382.67 839.137 1385.57C842.787 1388.47 844.612 1392.35 844.612 1397.2C844.612 1401.3 842.987 1405.32 839.737 1409.27C836.537 1413.17 831.487 1417.62 824.587 1422.62H844.987V1432Z" fill="white"/>
</g>
<path d="M1004.9 1336.55V1381.1H1005.2L1032.8 1336.55H1041.2V1391H1033.85V1347.05H1033.7L1006.03 1391H997.55V1336.55H1004.9ZM1056.84 1356.87V1367.75H1066.51C1072.29 1367.75 1074.46 1366.1 1074.46 1361.75C1074.46 1358.6 1072.51 1356.87 1066.66 1356.87H1056.84ZM1056.84 1373V1385.45H1068.76C1073.94 1385.45 1076.79 1383.72 1076.79 1379.3C1076.79 1375.02 1073.49 1373 1068.09 1373H1056.84ZM1050.16 1391V1351.32H1068.16C1076.94 1351.32 1081.14 1355.97 1081.14 1361.45C1081.14 1366.17 1077.91 1369.02 1074.46 1370C1078.66 1370.97 1083.46 1373.67 1083.46 1380.5C1083.46 1386.8 1078.36 1391 1068.91 1391H1050.16ZM1095.45 1363.4H1089.3C1089.3 1353.87 1095.83 1350.2 1105.65 1350.2C1108.8 1350.2 1120.35 1351.1 1120.35 1361.3V1383.95C1120.35 1385.6 1121.18 1386.42 1122.53 1386.42C1123.13 1386.42 1123.95 1386.27 1124.7 1386.12V1391C1123.58 1391.3 1122.6 1391.75 1121.1 1391.75C1115.18 1391.75 1114.35 1388.67 1114.05 1385.67C1111.43 1388.45 1107.45 1392.13 1099.73 1392.13C1092.45 1392.13 1087.35 1387.55 1087.35 1380.65C1087.35 1375.92 1088.55 1368.95 1102.5 1367.9C1112.93 1367.07 1113.68 1366.25 1113.68 1362.12C1113.68 1357.77 1110.75 1355.75 1104.45 1355.75C1096.88 1355.75 1095.83 1360.4 1095.45 1363.4ZM1113.68 1377.27V1370.75C1112.63 1371.57 1110.98 1372.17 1102.73 1373.22C1099.43 1373.67 1094.18 1374.57 1094.18 1379.6C1094.18 1383.95 1096.5 1386.57 1101.45 1386.57C1107.68 1386.57 1113.68 1382.6 1113.68 1377.27ZM1136.75 1351.32V1367.3H1155.27V1351.32H1161.95V1391H1155.27V1372.85H1136.75V1391H1130.07V1351.32H1136.75ZM1197.72 1336.55V1384.47H1217.74V1336.55H1225.09V1384.47H1245.12V1336.55H1252.47V1391H1190.37V1336.55H1197.72ZM1256.94 1351.32H1289.71V1356.87H1276.66V1391H1269.99V1356.87H1256.94V1351.32ZM1291.7 1351.32H1299.28L1309.85 1383.65H1310L1320.58 1351.32H1327.93C1323.28 1364.3 1315.93 1385.45 1310.45 1398.2C1307.53 1405.03 1305.8 1407.2 1298.15 1407.2C1297.18 1407.2 1296.35 1406.9 1295.3 1406.6V1400.53C1296.13 1400.83 1297.55 1401.2 1299.35 1401.2C1302.73 1401.2 1303.18 1400.23 1306.4 1392.05L1291.7 1351.32ZM1338.79 1351.32V1385.45H1357.39V1351.32H1364.07V1385.45H1368.42V1402.63H1362.42V1391H1332.12V1351.32H1338.79ZM1400.16 1378.55H1406.84C1405.34 1384.7 1401.21 1392.13 1388.99 1392.13C1377.89 1392.13 1371.36 1383.72 1371.36 1372.25C1371.36 1359.87 1377.21 1350.2 1390.34 1350.2C1401.74 1350.2 1407.36 1359.35 1407.36 1373.37H1378.49C1378.49 1381.55 1382.31 1386.35 1389.96 1386.35C1396.19 1386.35 1400.16 1381.47 1400.16 1378.55ZM1378.49 1368.05H1400.54C1400.16 1361.9 1397.54 1356.2 1389.36 1356.2C1383.29 1356.2 1378.49 1361.9 1378.49 1368.05ZM1430.97 1356.2C1420.62 1356.2 1420.09 1365.87 1420.09 1371.05C1420.09 1379.67 1423.47 1386.35 1430.74 1386.35C1434.94 1386.35 1441.24 1383.5 1441.24 1372.92C1441.24 1366.4 1440.57 1356.2 1430.97 1356.2ZM1413.42 1406.68V1351.32H1419.64V1356.95C1421.82 1353.72 1424.74 1350.2 1431.64 1350.2C1442.14 1350.2 1448.07 1358.75 1448.07 1370C1448.07 1379.45 1444.32 1392.13 1430.82 1392.13C1425.49 1392.13 1421.97 1389.57 1420.09 1386.35V1406.68H1413.42Z" fill="#007D32"/>
<path d="M70 608H430C467.555 608 498 638.445 498 676V836C498 873.555 467.555 904 430 904H70C32.4446 904 2 873.555 2 836V676L2.00586 675.121C2.47644 637.971 32.738 608 70 608Z" fill="#028D3A"/>
<path d="M70 608H430C467.555 608 498 638.445 498 676V836C498 873.555 467.555 904 430 904H70C32.4446 904 2 873.555 2 836V676L2.00586 675.121C2.47644 637.971 32.738 608 70 608Z" stroke="white" stroke-width="4"/>
<path d="M142.485 740V694.304H150.997L165.077 731.744H165.333L179.669 694.304H188.118V740H182.421V711.904C182.421 710.411 182.443 708.939 182.486 707.488C182.528 705.995 182.592 704.608 182.677 703.328C182.763 702.005 182.827 700.896 182.869 700H182.613L167.381 740H162.645L147.605 699.936H147.349C147.435 700.789 147.499 701.877 147.541 703.2C147.627 704.523 147.691 705.973 147.733 707.552C147.776 709.088 147.797 710.667 147.797 712.288V740H142.485ZM198.5 740V705.696H204.068V726.624C204.068 727.136 204.047 727.883 204.004 728.864C203.961 729.845 203.897 730.827 203.812 731.808C203.769 732.747 203.727 733.515 203.684 734.112H203.748L220.388 705.696H227.364V740H221.796V719.776C221.796 719.093 221.796 718.24 221.796 717.216C221.839 716.149 221.881 715.125 221.924 714.144C221.967 713.12 222.009 712.331 222.052 711.776H221.988L205.476 740H198.5ZM232.106 740L245.994 720.352V724.576L232.682 705.696H239.082L249.386 720.736L246.442 720.8L256.682 705.696H263.018L249.706 724.576V720.352L263.658 740H257.258L246.442 724.192H249.386L238.442 740H232.106ZM275.448 740.64C273.101 740.64 271.117 740.256 269.496 739.488C267.874 738.72 266.637 737.589 265.784 736.096C264.973 734.603 264.568 732.811 264.568 730.72C264.568 727.179 265.912 724.448 268.6 722.528C271.288 720.608 275.341 719.563 280.76 719.392L286.584 719.2V717.216C286.584 714.613 285.965 712.715 284.728 711.52C283.533 710.325 281.613 709.728 278.968 709.728C277.389 709.728 275.768 709.941 274.104 710.368C272.44 710.752 270.69 711.349 268.856 712.16L267 707.744C269.133 706.805 271.16 706.123 273.08 705.696C275.042 705.269 277.026 705.056 279.032 705.056C283.384 705.056 286.648 706.016 288.824 707.936C291 709.856 292.088 712.736 292.088 716.576V740H287.992L286.904 735.072H286.648C285.624 736.352 284.557 737.419 283.448 738.272C282.338 739.083 281.122 739.68 279.8 740.064C278.52 740.448 277.069 740.64 275.448 740.64ZM276.856 736.096C279.586 736.096 281.869 735.307 283.704 733.728C285.581 732.107 286.52 729.611 286.52 726.24V723.36L281.464 723.552C277.624 723.723 274.808 724.363 273.016 725.472C271.266 726.581 270.392 728.245 270.392 730.464C270.392 732.299 270.946 733.707 272.056 734.688C273.165 735.627 274.765 736.096 276.856 736.096ZM301.41 740V705.696H306.978V726.624C306.978 727.136 306.957 727.883 306.914 728.864C306.871 729.845 306.807 730.827 306.722 731.808C306.679 732.747 306.637 733.515 306.594 734.112H306.658L323.298 705.696H330.274V740H324.706V719.776C324.706 719.093 324.706 718.24 324.706 717.216C324.749 716.149 324.791 715.125 324.834 714.144C324.877 713.12 324.919 712.331 324.962 711.776H324.898L308.386 740H301.41ZM337.896 740.448C337.256 740.448 336.659 740.384 336.104 740.256C335.549 740.171 334.995 740.043 334.44 739.872V735.008C334.995 735.136 335.443 735.221 335.784 735.264C336.168 735.307 336.552 735.328 336.936 735.328C337.96 735.328 338.813 735.115 339.496 734.688C340.179 734.219 340.712 733.429 341.096 732.32C341.523 731.211 341.821 729.632 341.992 727.584C342.12 726.091 342.227 724.64 342.312 723.232C342.44 721.824 342.547 720.309 342.632 718.688C342.717 717.067 342.824 715.211 342.952 713.12C343.08 711.029 343.208 708.555 343.336 705.696H366.568V740H360.936V710.432H348.2C348.072 712.395 347.965 714.187 347.88 715.808C347.795 717.429 347.709 718.944 347.624 720.352C347.539 721.76 347.453 723.104 347.368 724.384C347.283 725.664 347.176 726.923 347.048 728.16C346.621 732.597 345.725 735.755 344.36 737.632C342.995 739.509 340.84 740.448 337.896 740.448ZM118.094 820V774.304H152.59V820H146.894V779.36H123.854V820H118.094ZM162.856 835.36C161.874 835.36 161 835.296 160.232 835.168C159.506 835.083 158.888 834.976 158.376 834.848V829.792C158.93 829.92 159.485 830.027 160.04 830.112C160.637 830.197 161.277 830.24 161.96 830.24C163.282 830.24 164.413 830.005 165.352 829.536C166.333 829.109 167.165 828.469 167.848 827.616C168.573 826.805 169.149 825.824 169.576 824.672L172.328 817.696V822.56L157.544 785.696H163.56L170.984 805.216C171.41 806.368 171.794 807.477 172.136 808.544C172.52 809.611 172.861 810.656 173.16 811.68C173.458 812.661 173.693 813.621 173.864 814.56H174.12C174.376 813.493 174.76 812.107 175.272 810.4C175.826 808.651 176.424 806.901 177.064 805.152L184.04 785.696H190.12L175.336 824.736C174.525 826.869 173.565 828.725 172.456 830.304C171.389 831.925 170.066 833.163 168.488 834.016C166.952 834.912 165.074 835.36 162.856 835.36ZM202.33 820.64C200.24 820.64 198.192 820.469 196.186 820.128C194.224 819.787 192.496 819.317 191.002 818.72V813.856C192.837 814.539 194.714 815.072 196.634 815.456C198.554 815.84 200.432 816.032 202.266 816.032C205.296 816.032 207.536 815.541 208.986 814.56C210.437 813.536 211.162 812.064 211.162 810.144C211.162 808.181 210.394 806.731 208.858 805.792C207.322 804.853 204.912 804.384 201.626 804.384H195.994V799.84H201.626C204.485 799.84 206.618 799.413 208.026 798.56C209.477 797.664 210.202 796.341 210.202 794.592C210.202 792.971 209.584 791.755 208.346 790.944C207.152 790.133 205.253 789.728 202.65 789.728C201.157 789.728 199.664 789.877 198.17 790.176C196.72 790.475 195.013 791.051 193.05 791.904L191.386 787.36C193.05 786.635 194.864 786.08 196.826 785.696C198.789 785.269 200.837 785.056 202.97 785.056C207.024 785.056 210.202 785.867 212.506 787.488C214.81 789.067 215.962 791.264 215.962 794.08C215.962 796.043 215.365 797.685 214.17 799.008C213.018 800.331 211.269 801.248 208.922 801.76V802.016C211.61 802.571 213.637 803.595 215.002 805.088C216.368 806.539 217.05 808.331 217.05 810.464C217.05 813.664 215.792 816.16 213.274 817.952C210.757 819.744 207.109 820.64 202.33 820.64ZM238.38 820.64C235.138 820.64 232.258 819.979 229.74 818.656C227.266 817.333 225.324 815.371 223.916 812.768C222.551 810.123 221.868 806.901 221.868 803.104C221.868 799.349 222.487 796.128 223.724 793.44C225.004 790.752 226.775 788.683 229.036 787.232C231.34 785.781 234.007 785.056 237.036 785.056C239.98 785.056 242.498 785.696 244.588 786.976C246.722 788.256 248.343 790.069 249.452 792.416C250.604 794.72 251.18 797.429 251.18 800.544V804.064H227.756C227.884 807.904 228.887 810.827 230.764 812.832C232.642 814.837 235.266 815.84 238.636 815.84C240.812 815.84 242.732 815.648 244.396 815.264C246.103 814.837 247.852 814.24 249.644 813.472V818.4C247.895 819.168 246.167 819.723 244.46 820.064C242.754 820.448 240.727 820.64 238.38 820.64ZM227.884 799.456H245.228C245.228 797.493 244.93 795.787 244.332 794.336C243.735 792.885 242.818 791.755 241.58 790.944C240.386 790.091 238.85 789.664 236.972 789.664C234.327 789.664 232.215 790.539 230.636 792.288C229.1 793.995 228.183 796.384 227.884 799.456ZM258.206 820V785.696H263.838V799.968H280.99V785.696H286.622V820H280.99V804.704H263.838V820H258.206ZM317.871 820L306.159 802.784L306.095 802.272L317.551 785.696H323.439L310.831 803.872L310.575 799.904L324.271 820H317.871ZM296.239 820V785.696H301.871V820H296.239ZM301.487 804.832V800.096H308.143V804.832H301.487ZM341.149 820.64C338.887 820.64 336.797 820.256 334.877 819.488C332.957 818.677 331.271 817.504 329.821 815.968C328.413 814.432 327.303 812.576 326.493 810.4C325.725 808.181 325.341 805.643 325.341 802.784C325.341 798.987 325.981 795.787 327.261 793.184C328.583 790.539 330.439 788.533 332.829 787.168C335.218 785.76 338.055 785.056 341.341 785.056C344.455 785.056 347.186 785.76 349.533 787.168C351.922 788.533 353.799 790.539 355.165 793.184C356.53 795.829 357.213 799.051 357.213 802.848C357.213 805.664 356.829 808.181 356.061 810.4C355.335 812.619 354.269 814.496 352.861 816.032C351.453 817.525 349.746 818.677 347.741 819.488C345.778 820.256 343.581 820.64 341.149 820.64ZM341.277 815.968C344.69 815.968 347.207 814.795 348.829 812.448C350.45 810.059 351.261 806.859 351.261 802.848C351.261 798.752 350.45 795.552 348.829 793.248C347.207 790.901 344.669 789.728 341.213 789.728C337.757 789.728 335.239 790.88 333.661 793.184C332.082 795.488 331.293 798.688 331.293 802.784C331.293 806.837 332.082 810.059 333.661 812.448C335.282 814.795 337.821 815.968 341.277 815.968ZM364.429 820V785.696H378.189C381.005 785.696 383.373 786.037 385.293 786.72C387.213 787.36 388.663 788.32 389.645 789.6C390.626 790.88 391.117 792.459 391.117 794.336C391.117 796.341 390.541 797.963 389.389 799.2C388.237 800.437 386.509 801.291 384.205 801.76V802.016C386.85 802.357 388.834 803.232 390.157 804.64C391.522 806.048 392.205 807.883 392.205 810.144C392.205 811.979 391.735 813.643 390.797 815.136C389.858 816.629 388.365 817.824 386.317 818.72C384.269 819.573 381.581 820 378.253 820H364.429ZM370.061 815.392H377.613C380.599 815.392 382.797 814.965 384.205 814.112C385.613 813.216 386.317 811.829 386.317 809.952C386.317 808.075 385.591 806.688 384.141 805.792C382.733 804.853 380.514 804.384 377.485 804.384H370.061V815.392ZM370.061 799.84H376.845C379.789 799.84 381.943 799.456 383.309 798.688C384.674 797.92 385.357 796.704 385.357 795.04C385.357 793.419 384.738 792.224 383.501 791.456C382.306 790.688 380.429 790.304 377.869 790.304H370.061V799.84Z" fill="white"/>
<line x1="500" y1="754" x2="560" y2="754" stroke="white" stroke-width="4"/>
<rect x="560" y="606" width="1400" height="300" rx="70" fill="white"/>
<mask id="mask2_23_1363" style="mask-type:alpha" maskUnits="userSpaceOnUse" x="560" y="606" width="392" height="300">
<path d="M560 676C560 637.34 591.34 606 630 606H952V906H630C591.34 906 560 874.66 560 836V676Z" fill="#D9D9D9"/>
</mask>
<g mask="url(#mask2_23_1363)">
<path d="M630 608H953.222V904H630C592.445 904 562 873.555 562 836V676L562.006 675.121C562.476 637.971 592.738 608 630 608Z" fill="#007D32" stroke="white" stroke-width="4"/>
<path d="M728.114 736H717.464V699.7L709.139 708.175L703.064 701.8L718.814 685.975H728.114V736ZM754.299 736.9C748.649 736.9 743.874 735.7 739.974 733.3C736.124 730.9 734.199 727.475 734.199 723.025C734.199 720.125 735.199 717.55 737.199 715.3C739.199 713 741.774 711.3 744.924 710.2C738.324 707.9 735.024 703.975 735.024 698.425C735.024 694.075 736.924 690.8 740.724 688.6C744.574 686.35 749.099 685.225 754.299 685.225C757.599 685.225 760.649 685.65 763.449 686.5C766.249 687.35 768.624 688.825 770.574 690.925C772.574 692.975 773.574 695.475 773.574 698.425C773.574 703.925 770.249 707.85 763.599 710.2C766.749 711.3 769.324 713 771.324 715.3C773.374 717.55 774.399 720.125 774.399 723.025C774.399 727.425 772.449 730.85 768.549 733.3C764.649 735.7 759.899 736.9 754.299 736.9ZM754.299 706C756.349 705.7 758.249 705.05 759.999 704.05C761.799 703.05 762.699 701.725 762.699 700.075C762.699 698.325 761.924 696.95 760.374 695.95C758.824 694.9 756.799 694.375 754.299 694.375C751.799 694.375 749.749 694.9 748.149 695.95C746.599 696.95 745.824 698.325 745.824 700.075C745.824 701.725 746.724 703.05 748.524 704.05C750.324 705.05 752.249 705.7 754.299 706ZM754.299 727.75C756.899 727.75 759.099 727.2 760.899 726.1C762.699 724.95 763.599 723.475 763.599 721.675C763.599 719.825 762.574 718.325 760.524 717.175C758.524 716.025 756.449 715.3 754.299 715C752.149 715.3 750.049 716.025 747.999 717.175C745.999 718.325 744.999 719.825 744.999 721.675C744.999 723.475 745.874 724.95 747.624 726.1C749.424 727.2 751.649 727.75 754.299 727.75ZM788.907 720.7C787.257 718.9 786.432 716.7 786.432 714.1C786.432 712.1 787.007 710.3 788.157 708.7C789.307 707.1 790.557 705.9 791.907 705.1C793.257 704.3 794.507 703.35 795.657 702.25C796.807 701.15 797.382 700.05 797.382 698.95C797.382 697.7 796.882 696.675 795.882 695.875C794.932 695.075 793.482 694.675 791.532 694.675C787.982 694.675 784.907 696.225 782.307 699.325L776.232 692.5C780.382 687.65 785.857 685.225 792.657 685.225C797.457 685.225 801.257 686.325 804.057 688.525C806.857 690.675 808.257 693.525 808.257 697.075C808.257 699.075 807.832 700.875 806.982 702.475C806.132 704.075 805.082 705.375 803.832 706.375C802.632 707.375 801.407 708.3 800.157 709.15C798.907 710 797.857 710.925 797.007 711.925C796.157 712.925 795.732 714 795.732 715.15C795.732 716.45 796.182 717.5 797.082 718.3L788.907 720.7ZM796.782 735.025C795.582 736.225 794.157 736.825 792.507 736.825C790.857 736.825 789.432 736.225 788.232 735.025C787.032 733.825 786.432 732.4 786.432 730.75C786.432 729.1 787.032 727.675 788.232 726.475C789.432 725.275 790.857 724.675 792.507 724.675C794.157 724.675 795.582 725.275 796.782 726.475C797.982 727.675 798.582 729.1 798.582 730.75C798.582 732.4 797.982 733.825 796.782 735.025ZM702.643 826H691.993V789.7L683.668 798.175L677.593 791.8L693.343 775.975H702.643V826ZM725.828 826.825C719.878 826.825 714.978 825.1 711.128 821.65L715.853 813.475C718.603 816.075 721.928 817.375 725.828 817.375C729.728 817.375 732.778 816 734.978 813.25C737.228 810.45 738.353 807.125 738.353 803.275V802.15C737.053 803.95 735.228 805.475 732.878 806.725C730.528 807.975 728.053 808.6 725.453 808.6C720.703 808.6 716.653 807.175 713.303 804.325C710.003 801.425 708.353 797.425 708.353 792.325C708.353 787.375 710.128 783.275 713.678 780.025C717.278 776.775 721.903 775.15 727.553 775.15C732.403 775.15 736.478 776.35 739.778 778.75C743.128 781.15 745.503 784.25 746.903 788.05C748.353 791.8 749.078 796.125 749.078 801.025C749.078 808.725 747.003 814.95 742.853 819.7C738.753 824.45 733.078 826.825 725.828 826.825ZM728.453 799.45C732.453 799.45 735.728 797.9 738.278 794.8C738.028 792 737.078 789.6 735.428 787.6C733.778 785.6 731.328 784.6 728.078 784.6C725.378 784.6 723.228 785.35 721.628 786.85C720.028 788.35 719.228 790.05 719.228 791.95C719.228 794.4 720.128 796.275 721.928 797.575C723.728 798.825 725.903 799.45 728.453 799.45ZM771.008 826H759.308L777.233 785.35H752.033V775.975H789.608V783.4L771.008 826ZM809.327 826.825C803.377 826.825 798.477 825.1 794.627 821.65L799.352 813.475C802.102 816.075 805.427 817.375 809.327 817.375C813.227 817.375 816.277 816 818.477 813.25C820.727 810.45 821.852 807.125 821.852 803.275V802.15C820.552 803.95 818.727 805.475 816.377 806.725C814.027 807.975 811.552 808.6 808.952 808.6C804.202 808.6 800.152 807.175 796.802 804.325C793.502 801.425 791.852 797.425 791.852 792.325C791.852 787.375 793.627 783.275 797.177 780.025C800.777 776.775 805.402 775.15 811.052 775.15C815.902 775.15 819.977 776.35 823.277 778.75C826.627 781.15 829.002 784.25 830.402 788.05C831.852 791.8 832.577 796.125 832.577 801.025C832.577 808.725 830.502 814.95 826.352 819.7C822.252 824.45 816.577 826.825 809.327 826.825ZM811.952 799.45C815.952 799.45 819.227 797.9 821.777 794.8C821.527 792 820.577 789.6 818.927 787.6C817.277 785.6 814.827 784.6 811.577 784.6C808.877 784.6 806.727 785.35 805.127 786.85C803.527 788.35 802.727 790.05 802.727 791.95C802.727 794.4 803.627 796.275 805.427 797.575C807.227 798.825 809.402 799.45 811.952 799.45Z" fill="white"/>
</g>
<path d="M999.275 784V730.45H1014.58C1021.28 730.45 1026.33 731.45 1029.73 733.45C1033.18 735.4 1034.9 738.825 1034.9 743.725C1034.9 745.825 1034.5 747.7 1033.7 749.35C1032.95 750.95 1031.8 752.3 1030.25 753.4C1028.75 754.45 1026.9 755.175 1024.7 755.575V755.95C1026.95 756.3 1028.98 756.95 1030.78 757.9C1032.63 758.85 1034.08 760.2 1035.13 761.95C1036.18 763.7 1036.7 765.975 1036.7 768.775C1036.7 772.025 1035.95 774.8 1034.45 777.1C1032.95 779.35 1030.8 781.075 1028 782.275C1025.25 783.425 1021.95 784 1018.1 784H999.275ZM1006.03 778.3H1016.9C1021.65 778.3 1024.95 777.375 1026.8 775.525C1028.65 773.675 1029.58 771.25 1029.58 768.25C1029.58 766.35 1029.15 764.7 1028.3 763.3C1027.5 761.9 1026.13 760.825 1024.18 760.075C1022.28 759.275 1019.68 758.875 1016.38 758.875H1006.03V778.3ZM1006.03 753.25H1015.93C1020.53 753.25 1023.68 752.525 1025.38 751.075C1027.08 749.575 1027.93 747.375 1027.93 744.475C1027.93 741.525 1026.88 739.425 1024.78 738.175C1022.73 736.875 1019.43 736.225 1014.88 736.225H1006.03V753.25ZM1062.23 784.75C1058.43 784.75 1055.05 783.975 1052.1 782.425C1049.2 780.875 1046.93 778.575 1045.28 775.525C1043.68 772.425 1042.88 768.65 1042.88 764.2C1042.88 759.8 1043.6 756.025 1045.05 752.875C1046.55 749.725 1048.63 747.3 1051.28 745.6C1053.98 743.9 1057.1 743.05 1060.65 743.05C1064.1 743.05 1067.05 743.8 1069.5 745.3C1072 746.8 1073.9 748.925 1075.2 751.675C1076.55 754.375 1077.23 757.55 1077.23 761.2V765.325H1049.78C1049.93 769.825 1051.1 773.25 1053.3 775.6C1055.5 777.95 1058.58 779.125 1062.53 779.125C1065.08 779.125 1067.33 778.9 1069.28 778.45C1071.28 777.95 1073.33 777.25 1075.43 776.35V782.125C1073.38 783.025 1071.35 783.675 1069.35 784.075C1067.35 784.525 1064.98 784.75 1062.23 784.75ZM1049.93 759.925H1070.25C1070.25 757.625 1069.9 755.625 1069.2 753.925C1068.5 752.225 1067.43 750.9 1065.98 749.95C1064.58 748.95 1062.78 748.45 1060.58 748.45C1057.48 748.45 1055 749.475 1053.15 751.525C1051.35 753.525 1050.28 756.325 1049.93 759.925ZM1085.46 802V743.8H1090.86L1091.76 749.275H1092.06C1092.86 748.125 1093.81 747.075 1094.91 746.125C1096.06 745.175 1097.41 744.425 1098.96 743.875C1100.56 743.325 1102.44 743.05 1104.59 743.05C1109.54 743.05 1113.51 744.775 1116.51 748.225C1119.56 751.675 1121.09 756.875 1121.09 763.825C1121.09 768.375 1120.39 772.225 1118.99 775.375C1117.64 778.475 1115.71 780.825 1113.21 782.425C1110.76 783.975 1107.86 784.75 1104.51 784.75C1102.46 784.75 1100.64 784.475 1099.04 783.925C1097.44 783.375 1096.06 782.675 1094.91 781.825C1093.81 780.925 1092.86 779.95 1092.06 778.9H1091.61C1091.71 779.75 1091.81 780.825 1091.91 782.125C1092.01 783.425 1092.06 784.55 1092.06 785.5V802H1085.46ZM1103.54 779.275C1105.94 779.275 1107.91 778.6 1109.46 777.25C1111.06 775.9 1112.24 774.075 1112.99 771.775C1113.79 769.425 1114.19 766.75 1114.19 763.75C1114.19 759.15 1113.31 755.475 1111.56 752.725C1109.81 749.975 1107.09 748.6 1103.39 748.6C1100.69 748.6 1098.49 749.125 1096.79 750.175C1095.14 751.175 1093.94 752.7 1093.19 754.75C1092.44 756.8 1092.06 759.4 1092.06 762.55V763.825C1092.06 767.125 1092.41 769.925 1093.11 772.225C1093.81 774.525 1094.99 776.275 1096.64 777.475C1098.34 778.675 1100.64 779.275 1103.54 779.275ZM1139.34 784.75C1136.59 784.75 1134.27 784.3 1132.37 783.4C1130.47 782.5 1129.02 781.175 1128.02 779.425C1127.07 777.675 1126.59 775.575 1126.59 773.125C1126.59 768.975 1128.17 765.775 1131.32 763.525C1134.47 761.275 1139.22 760.05 1145.57 759.85L1152.39 759.625V757.3C1152.39 754.25 1151.67 752.025 1150.22 750.625C1148.82 749.225 1146.57 748.525 1143.47 748.525C1141.62 748.525 1139.72 748.775 1137.77 749.275C1135.82 749.725 1133.77 750.425 1131.62 751.375L1129.44 746.2C1131.94 745.1 1134.32 744.3 1136.57 743.8C1138.87 743.3 1141.19 743.05 1143.54 743.05C1148.64 743.05 1152.47 744.175 1155.02 746.425C1157.57 748.675 1158.84 752.05 1158.84 756.55V784H1154.04L1152.77 778.225H1152.47C1151.27 779.725 1150.02 780.975 1148.72 781.975C1147.42 782.925 1145.99 783.625 1144.44 784.075C1142.94 784.525 1141.24 784.75 1139.34 784.75ZM1140.99 779.425C1144.19 779.425 1146.87 778.5 1149.02 776.65C1151.22 774.75 1152.32 771.825 1152.32 767.875V764.5L1146.39 764.725C1141.89 764.925 1138.59 765.675 1136.49 766.975C1134.44 768.275 1133.42 770.225 1133.42 772.825C1133.42 774.975 1134.07 776.625 1135.37 777.775C1136.67 778.875 1138.54 779.425 1140.99 779.425ZM1190.19 784V730.45H1196.94V778H1218.31V730.45H1225.06V778H1246.44V730.45H1253.26V784H1190.19ZM1273.15 784V749.35H1260.17V743.8H1292.8V749.35H1279.67V784H1273.15ZM1298.64 802C1297.49 802 1296.46 801.925 1295.56 801.775C1294.71 801.675 1293.99 801.55 1293.39 801.4V795.475C1294.04 795.625 1294.69 795.75 1295.34 795.85C1296.04 795.95 1296.79 796 1297.59 796C1299.14 796 1300.46 795.725 1301.56 795.175C1302.71 794.675 1303.69 793.925 1304.49 792.925C1305.34 791.975 1306.01 790.825 1306.51 789.475L1309.74 781.3V787L1292.41 743.8H1299.46L1308.16 766.675C1308.66 768.025 1309.11 769.325 1309.51 770.575C1309.96 771.825 1310.36 773.05 1310.71 774.25C1311.06 775.4 1311.34 776.525 1311.54 777.625H1311.84C1312.14 776.375 1312.59 774.75 1313.19 772.75C1313.84 770.7 1314.54 768.65 1315.29 766.6L1323.46 743.8H1330.59L1313.26 789.55C1312.31 792.05 1311.19 794.225 1309.89 796.075C1308.64 797.975 1307.09 799.425 1305.24 800.425C1303.44 801.475 1301.24 802 1298.64 802ZM1367.92 794.5V784H1335.52V743.8H1342.12V778.45H1361.55V743.8H1368.15V778.525H1374.22V794.5H1367.92ZM1396.45 784.75C1392.65 784.75 1389.27 783.975 1386.32 782.425C1383.42 780.875 1381.15 778.575 1379.5 775.525C1377.9 772.425 1377.1 768.65 1377.1 764.2C1377.1 759.8 1377.82 756.025 1379.27 752.875C1380.77 749.725 1382.85 747.3 1385.5 745.6C1388.2 743.9 1391.32 743.05 1394.87 743.05C1398.32 743.05 1401.27 743.8 1403.72 745.3C1406.22 746.8 1408.12 748.925 1409.42 751.675C1410.77 754.375 1411.45 757.55 1411.45 761.2V765.325H1384C1384.15 769.825 1385.32 773.25 1387.52 775.6C1389.72 777.95 1392.8 779.125 1396.75 779.125C1399.3 779.125 1401.55 778.9 1403.5 778.45C1405.5 777.95 1407.55 777.25 1409.65 776.35V782.125C1407.6 783.025 1405.57 783.675 1403.57 784.075C1401.57 784.525 1399.2 784.75 1396.45 784.75ZM1384.15 759.925H1404.47C1404.47 757.625 1404.12 755.625 1403.42 753.925C1402.72 752.225 1401.65 750.9 1400.2 749.95C1398.8 748.95 1397 748.45 1394.8 748.45C1391.7 748.45 1389.22 749.475 1387.37 751.525C1385.57 753.525 1384.5 756.325 1384.15 759.925ZM1419.68 802V743.8H1425.08L1425.98 749.275H1426.28C1427.08 748.125 1428.03 747.075 1429.13 746.125C1430.28 745.175 1431.63 744.425 1433.18 743.875C1434.78 743.325 1436.65 743.05 1438.8 743.05C1443.75 743.05 1447.73 744.775 1450.73 748.225C1453.78 751.675 1455.3 756.875 1455.3 763.825C1455.3 768.375 1454.6 772.225 1453.2 775.375C1451.85 778.475 1449.93 780.825 1447.43 782.425C1444.98 783.975 1442.08 784.75 1438.73 784.75C1436.68 784.75 1434.85 784.475 1433.25 783.925C1431.65 783.375 1430.28 782.675 1429.13 781.825C1428.03 780.925 1427.08 779.95 1426.28 778.9H1425.83C1425.93 779.75 1426.03 780.825 1426.13 782.125C1426.23 783.425 1426.28 784.55 1426.28 785.5V802H1419.68ZM1437.75 779.275C1440.15 779.275 1442.13 778.6 1443.68 777.25C1445.28 775.9 1446.45 774.075 1447.2 771.775C1448 769.425 1448.4 766.75 1448.4 763.75C1448.4 759.15 1447.53 755.475 1445.78 752.725C1444.03 749.975 1441.3 748.6 1437.6 748.6C1434.9 748.6 1432.7 749.125 1431 750.175C1429.35 751.175 1428.15 752.7 1427.4 754.75C1426.65 756.8 1426.28 759.4 1426.28 762.55V763.825C1426.28 767.125 1426.63 769.925 1427.33 772.225C1428.03 774.525 1429.2 776.275 1430.85 777.475C1432.55 778.675 1434.85 779.275 1437.75 779.275Z" fill="#007D32"/>
<path d="M1005.46 568.536C1007.42 570.488 1010.58 570.488 1012.54 568.536L1044.36 536.716C1046.31 534.763 1046.31 531.597 1044.36 529.645C1042.4 527.692 1039.24 527.692 1037.28 529.645L1009 557.929L980.716 529.645C978.763 527.692 975.597 527.692 973.645 529.645C971.692 531.597 971.692 534.763 973.645 536.716L1005.46 568.536ZM1009 328L1004 328L1004 565L1009 565L1014 565L1014 328L1009 328Z" fill="white"/>
<path d="M1005.46 1180.54C1007.42 1182.49 1010.58 1182.49 1012.54 1180.54L1044.36 1148.72C1046.31 1146.76 1046.31 1143.6 1044.36 1141.64C1042.4 1139.69 1039.24 1139.69 1037.28 1141.64L1009 1169.93L980.716 1141.64C978.763 1139.69 975.597 1139.69 973.645 1141.64C971.692 1143.6 971.692 1146.76 973.645 1148.72L1005.46 1180.54ZM1009 940L1004 940L1004 1177L1009 1177L1014 1177L1014 940L1009 940Z" fill="white"/>
<path d="M1005.46 1843.54C1007.42 1845.49 1010.58 1845.49 1012.54 1843.54L1044.36 1811.72C1046.31 1809.76 1046.31 1806.6 1044.36 1804.64C1042.4 1802.69 1039.24 1802.69 1037.28 1804.64L1009 1832.93L980.716 1804.64C978.763 1802.69 975.597 1802.69 973.645 1804.64C971.692 1806.6 971.692 1809.76 973.645 1811.72L1005.46 1843.54ZM1009 1540L1004 1540L1004 1840L1009 1840L1014 1840L1014 1540L1009 1540Z" fill="white"/>
</svg>
